<svg height='100px' width='100px'  fill="#ffffff" xmlns:dc="http://purl.org/dc/elements/1.1/" xmlns:cc="http://creativecommons.org/ns#" xmlns:rdf="http://www.w3.org/1999/02/22-rdf-syntax-ns#" xmlns:svg="http://www.w3.org/2000/svg" xmlns="http://www.w3.org/2000/svg" xmlns:sodipodi="http://sodipodi.sourceforge.net/DTD/sodipodi-0.dtd" xmlns:inkscape="http://www.inkscape.org/namespaces/inkscape" version="1.1" x="0px" y="0px" viewBox="0 0 100 100"><g transform="translate(0,-952.36218)"><path style="font-size:medium;font-style:normal;font-variant:normal;font-weight:normal;font-stretch:normal;text-indent:0;text-align:start;text-decoration:none;line-height:normal;letter-spacing:normal;word-spacing:normal;text-transform:none;direction:ltr;block-progression:tb;writing-mode:lr-tb;text-anchor:start;baseline-shift:baseline;opacity:1;color:#000000;fill:#ffffff;fill-opacity:1;stroke:none;stroke-width:4.71787738999999990;marker:none;visibility:visible;display:inline;overflow:visible;enable-background:accumulate;font-family:Sans;-inkscape-font-specification:Sans" d="M 38 10.65625 L 7 37.21875 L 7 72 L 29 72 L 29 46 L 47 46 L 47 72 L 53 72 C 53 61.9577 59.781418 53.46585 69 50.84375 L 69 37.21875 L 38 10.65625 z M 53 16 L 53 18.1875 L 65 28.46875 L 65 16 L 53 16 z M 75 54 C 65.035187 54 57 62.0352 57 72 C 57 81.9649 65.035187 90 75 90 C 84.964812 90 93 81.9649 93 72 C 93 62.0352 84.964812 54 75 54 z M 74.78125 56.96875 C 75.90924 56.844492 77.02444 57.86545 77 59 L 77 61.09375 C 78.932008 61.30265 80.954038 61.92965 82.5 63.65625 C 83.190411 64.442437 83.095868 65.775142 82.3125 66.46875 C 81.529132 67.162357 80.196792 67.093037 79.5 66.3125 C 78.882635 65.6229 78.061341 65.31505 77 65.15625 L 77 70.34375 C 78.300403 70.58815 79.653742 70.9044 80.9375 71.625 C 82.606385 72.5617 84 74.5606 84 77 C 84 79.8005 82.165635 81.82405 80.28125 82.78125 C 79.171718 83.34495 78.040648 83.6426 77 83.8125 L 77 85 C 77.01494 86.056625 76.056731 87.03125 75 87.03125 C 73.943269 87.03125 72.985057 86.056625 73 85 L 73 83.84375 C 70.04717 83.42595 67.758566 82.0938 66.375 80.125 C 65.619108 79.286965 65.795023 77.804635 66.71875 77.15625 C 67.642477 76.507864 69.093743 76.848039 69.625 77.84375 C 70.291899 78.79275 71.270658 79.53395 73 79.84375 L 73 73.6875 C 72.030427 73.4698 71.04056 73.16925 70.09375 72.65625 C 68.428325 71.75405 67 69.7821 67 67.375 C 67 65.4054 68.154174 63.7652 69.625 62.6875 C 70.594274 61.9773 71.751178 61.48195 73 61.21875 L 73 59 C 72.97874 58.01156 73.798498 57.076745 74.78125 56.96875 z M 73 65.40625 C 72.628529 65.55675 72.280278 65.7321 72 65.9375 C 71.265438 66.4757 71 67.0329 71 67.375 C 71 68.5837 71.196675 68.7067 71.96875 69.125 C 72.232649 69.268 72.594016 69.41245 73 69.53125 L 73 65.40625 z M 77 74.46875 L 77 79.71875 C 77.523597 79.59265 78.036803 79.43825 78.46875 79.21875 C 79.507147 78.69115 80 78.2603 80 77 C 80 75.7283 79.768615 75.5564 79 75.125 C 78.545993 74.8702 77.825533 74.66015 77 74.46875 z " transform="translate(0,952.36218)"></path></g></svg>