<svg height='100px' width='100px'  fill="#ffffff" xmlns:x="http://ns.adobe.com/Extensibility/1.0/" xmlns:i="http://ns.adobe.com/AdobeIllustrator/10.0/" xmlns:graph="http://ns.adobe.com/Graphs/1.0/" xmlns="http://www.w3.org/2000/svg" xmlns:xlink="http://www.w3.org/1999/xlink" version="1.1" x="0px" y="0px" viewBox="0 0 100 100" style="enable-background:new 0 0 100 100;" xml:space="preserve"><g><g i:extraneous="self"><path d="M91.7,87.6V18.6L36.9,6.9v80.7H33V27.4L8.3,33.6v54H2.5v5.5h95v-5.5H91.7z M16.5,42.6h8.6v8.6h-8.6V42.6z M16.5,57.5h8.6    v8.6h-8.6V57.5z M16.5,72.3h8.6V81h-8.6V72.3z M74.9,27.6h8.6v8.6h-8.6V27.6z M74.9,42.5h8.6v8.6h-8.6V42.5z M74.9,57.4h8.6V66    h-8.6V57.4z M74.9,72.3h8.6v8.6h-8.6V72.3z M60,27.6h8.6v8.6H60V27.6z M60,42.5h8.6v8.6H60V42.5z M60,57.4h8.6V66H60V57.4z     M45.1,27.6h8.6v8.6h-8.6V27.6z M45.1,42.5h8.6v8.6h-8.6V42.5z M45.1,57.4h8.6V66h-8.6V57.4z M45.1,72.3h8.6v8.6h-8.6V72.3z     M60,72.3h8.6v15.3H60V72.3z"></path></g></g></svg>