<svg height='100px' width='100px'  fill="#ffffff" xmlns="http://www.w3.org/2000/svg" xmlns:xlink="http://www.w3.org/1999/xlink" version="1.1" x="0px" y="0px" viewBox="0 0 100 100" enable-background="new 0 0 100 100" xml:space="preserve"><g><path d="M59.749,28.584H40.251c-1.059,0-1.918,0.859-1.918,1.918v29.884c0,1.061,0.859,1.918,1.918,1.918h1.757V84.92   c0,1.986,1.61,3.596,3.596,3.596c1.986,0,3.596-1.609,3.596-3.596V62.305h1.599V84.92c0,1.986,1.609,3.596,3.596,3.596   s3.596-1.609,3.596-3.596V62.305h1.759c1.059,0,1.918-0.857,1.918-1.918V30.502C61.667,29.443,60.808,28.584,59.749,28.584z"></path><circle cx="50" cy="19.235" r="7.751"></circle></g></svg>